HIERARCHY
ROOT Hips
{
	OFFSET 0.00 0.00 0.00
	CHANNELS 6 Xposition Yposition Zposition Xrotation Yrotation Zrotation
	JOINT Spine
	{
		OFFSET 0.00000 3.94796 -0.89174
		CHANNELS 3 Xrotation Yrotation Zrotation
		JOINT Spine1
		{
			OFFSET 0.00000 4.08280 -0.71991
			CHANNELS 3 Xrotation Yrotation Zrotation
			JOINT Spine2
			{
				OFFSET 0.00000 4.13001 -0.36133
				CHANNELS 3 Xrotation Yrotation Zrotation
				JOINT Spine3
				{
					OFFSET 0.00000 4.14578 0.00000
					CHANNELS 3 Xrotation Yrotation Zrotation
					JOINT Neck
					{
						OFFSET 0.00000 5.33029 0.53303
						CHANNELS 3 Xrotation Yrotation Zrotation
						JOINT Neck1
						{
							OFFSET 0.00000 1.81100 0.15844
							CHANNELS 3 Xrotation Yrotation Zrotation
							JOINT Head
							{
								OFFSET 0.00000 1.79030 0.31568
								CHANNELS 3 Xrotation Yrotation Zrotation
								End Site
								{
									OFFSET 0.00000 3.82980 0.00000
								}
							}
						}
					}
					JOINT RightShoulder
					{
						OFFSET 0.00000 3.80735 2.52696
						CHANNELS 3 Zrotation Yrotation Xrotation
						JOINT RightArm
						{
							OFFSET -7.72343 0.00000 0.00000
							CHANNELS 3 Xrotation Yrotation Zrotation
							JOINT RightForeArm
							{
								OFFSET -11.00981 0.00000 0.00000
								CHANNELS 3 Yrotation Zrotation Xrotation
								JOINT RightHand
								{
									OFFSET -9.51589 0.00000 0.00000
									CHANNELS 3 Xrotation Yrotation Zrotation
									JOINT RightHandMiddle1
									{
										OFFSET -3.60596 0.00000 0.00000
										CHANNELS 3 Xrotation Yrotation Zrotation
										JOINT RightHandMiddle2
										{
											OFFSET -1.90694 0.00000 0.00000
											CHANNELS 3 Xrotation Yrotation Zrotation
											JOINT RightHandMiddle3
											{
												OFFSET -1.23919 0.00000 0.00000
												CHANNELS 3 Xrotation Yrotation Zrotation
												End Site
												{
													OFFSET -0.74014 0.00000 0.00000
												}
											}
										}
									}
									JOINT RightHandRing
									{
										OFFSET -0.09843 -0.09842 -0.35204
										CHANNELS 3 Yrotation Xrotation Zrotation
										JOINT RightHandRing1
										{
											OFFSET -3.17392 0.00000 -0.28643
											CHANNELS 3 Xrotation Yrotation Zrotation
											JOINT RightHandRing2
											{
												OFFSET -1.77040 0.00000 -0.15977
												CHANNELS 3 Xrotation Yrotation Zrotation
												JOINT RightHandRing3
												{
													OFFSET -1.21212 0.00000 -0.10939
													CHANNELS 3 Xrotation Yrotation Zrotation
													End Site
													{
														OFFSET -0.73291 0.00000 -0.06614
													}
												}
											}
										}
										JOINT RightHandPinky
										{
											OFFSET -0.06639 -0.09842 -0.35946
											CHANNELS 3 Yrotation Xrotation Zrotation
											JOINT RightHandPinky1
											{
												OFFSET -2.62298 0.00000 -0.58655
												CHANNELS 3 Xrotation Yrotation Zrotation
												JOINT RightHandPinky2
												{
													OFFSET -1.41572 0.00000 -0.31658
													CHANNELS 3 Xrotation Yrotation Zrotation
													JOINT RightHandPinky3
													{
														OFFSET -0.90934 0.00000 -0.20335
														CHANNELS 3 Xrotation Yrotation Zrotation
														End Site
														{
															OFFSET -0.66252 0.00000 -0.14815
														}
													}
												}
											}
										}
									}
									JOINT RightHandIndex
									{
										OFFSET -0.09843 -0.09842 0.35204
										CHANNELS 3 Yrotation Xrotation Zrotation
										JOINT RightHandIndex1
										{
											OFFSET -3.48113 0.00000 0.31415
											CHANNELS 3 Xrotation Yrotation Zrotation
											JOINT RightHandIndex2
											{
												OFFSET -1.84595 0.00000 0.16659
												CHANNELS 3 Xrotation Yrotation Zrotation
												JOINT RightHandIndex3
												{
													OFFSET -1.10409 0.00000 0.09964
													CHANNELS 3 Xrotation Yrotation Zrotation
													End Site
													{
														OFFSET -0.67021 0.00000 0.06048
													}
												}
											}
										}
										JOINT RightHandThumb1
										{
											OFFSET -0.06639 -0.29527 0.35946
											CHANNELS 3 Yrotation Xrotation Zrotation
											JOINT RightHandThumb2
											{
												OFFSET -2.16842 0.00000 0.79596
												CHANNELS 3 Xrotation Yrotation Zrotation
												JOINT RightHandThumb3
												{
													OFFSET -1.43675 0.00000 0.52739
													CHANNELS 3 Xrotation Yrotation Zrotation
													End Site
													{
														OFFSET -0.86532 0.00000 0.31763
													}
												}
											}
										}
									}
								}
							}
						}
					}
					JOINT LeftShoulder
					{
						OFFSET 0.00000 3.80735 2.52696
						CHANNELS 3 Zrotation Yrotation Xrotation
						JOINT LeftArm
						{
							OFFSET 7.72343 0.00000 0.00000
							CHANNELS 3 Xrotation Yrotation Zrotation
							JOINT LeftForeArm
							{
								OFFSET 11.00981 0.00000 0.00000
								CHANNELS 3 Yrotation Zrotation Xrotation
								JOINT LeftHand
								{
									OFFSET 9.51589 0.00000 0.00000
									CHANNELS 3 Xrotation Yrotation Zrotation
									JOINT LeftHandMiddle1
									{
										OFFSET 3.57604 0.00000 0.00000
										CHANNELS 3 Xrotation Yrotation Zrotation
										JOINT LeftHandMiddle2
										{
											OFFSET 1.89144 0.00000 0.00000
											CHANNELS 3 Xrotation Yrotation Zrotation
											JOINT LeftHandMiddle3
											{
												OFFSET 1.23267 0.00000 0.00000
												CHANNELS 3 Xrotation Yrotation Zrotation
												End Site
												{
													OFFSET 0.73127 0.00000 0.00000
												}
											}
										}
									}
									JOINT LeftHandRing
									{
										OFFSET 0.09843 -0.09842 -0.36794
										CHANNELS 3 Yrotation Xrotation Zrotation
										JOINT LeftHandRing1
										{
											OFFSET 3.14618 0.00000 -0.28392
											CHANNELS 3 Xrotation Yrotation Zrotation
											JOINT LeftHandRing2
											{
												OFFSET 1.75353 0.00000 -0.15824
												CHANNELS 3 Xrotation Yrotation Zrotation
												JOINT LeftHandRing3
												{
													OFFSET 1.20401 0.00000 -0.10865
													CHANNELS 3 Xrotation Yrotation Zrotation
													End Site
													{
														OFFSET 0.72413 0.00000 -0.06535
													}
												}
											}
										}
										JOINT LeftHandPinky
										{
											OFFSET 0.06496 -0.09842 -0.37530
											CHANNELS 3 Yrotation Xrotation Zrotation
											JOINT LeftHandPinky1
											{
												OFFSET 2.59399 0.00000 -0.58007
												CHANNELS 3 Xrotation Yrotation Zrotation
												JOINT LeftHandPinky2
												{
													OFFSET 1.40515 0.00000 -0.31422
													CHANNELS 3 Xrotation Yrotation Zrotation
													JOINT LeftHandPinky3
													{
														OFFSET 0.89940 0.00000 -0.20112
														CHANNELS 3 Xrotation Yrotation Zrotation
														End Site
														{
															OFFSET 0.65459 0.00000 -0.14638
														}
													}
												}
											}
										}
									}
									JOINT LeftHandIndex
									{
										OFFSET 0.09843 -0.09842 0.36794
										CHANNELS 3 Yrotation Xrotation Zrotation
										JOINT LeftHandIndex1
										{
											OFFSET 3.44900 0.00000 0.31125
											CHANNELS 3 Xrotation Yrotation Zrotation
											JOINT LeftHandIndex2
											{
												OFFSET 1.83177 0.00000 0.16531
												CHANNELS 3 Xrotation Yrotation Zrotation
												JOINT LeftHandIndex3
												{
													OFFSET 1.09489 0.00000 0.09881
													CHANNELS 3 Xrotation Yrotation Zrotation
													End Site
													{
														OFFSET 0.66218 0.00000 0.05976
													}
												}
											}
										}
										JOINT LeftHandThumb1
										{
											OFFSET 0.06496 -0.29527 0.37530
											CHANNELS 3 Yrotation Xrotation Zrotation
											JOINT LeftHandThumb2
											{
												OFFSET 2.13802 0.00000 0.78480
												CHANNELS 3 Xrotation Yrotation Zrotation
												JOINT LeftHandThumb3
												{
													OFFSET 1.42769 0.00000 0.52406
													CHANNELS 3 Xrotation Yrotation Zrotation
													End Site
													{
														OFFSET 0.85495 0.00000 0.31383
													}
												}
											}
										}
									}
								}
							}
						}
					}
				}
			}
		}
	}
	JOINT RightUpLeg
	{
		OFFSET -3.21426 0.00000 0.00000
		CHANNELS 3 Xrotation Yrotation Zrotation
		JOINT RightLeg
		{
			OFFSET 0.00000 -15.63926 0.00000
			CHANNELS 3 Xrotation Yrotation Zrotation
			JOINT RightFoot
			{
				OFFSET 0.00000 -16.44907 0.00000
				CHANNELS 3 Xrotation Yrotation Zrotation
				JOINT RightForeFoot
				{
					OFFSET 0.00000 -1.44076 0.00000
					CHANNELS 3 Xrotation Yrotation Zrotation
					End Site
					{
						OFFSET 0.00000 0.00000 8.77592
					}
				}
			}
		}
	}
	JOINT LeftUpLeg
	{
		OFFSET 3.21426 0.00000 0.00000
		CHANNELS 3 Xrotation Yrotation Zrotation
		JOINT LeftLeg
		{
			OFFSET 0.00000 -15.63926 0.00000
			CHANNELS 3 Xrotation Yrotation Zrotation
			JOINT LeftFoot
			{
				OFFSET 0.00000 -16.44907 0.00000
				CHANNELS 3 Xrotation Yrotation Zrotation
				JOINT LeftForeFoot
				{
					OFFSET 0.00000 -1.44076 0.00000
					CHANNELS 3 Xrotation Yrotation Zrotation
					End Site
					{
						OFFSET 0.00000 0.00000 8.74096
					}
				}
			}
		}
	}
}
MOTION
Frames: 7
Frame Time: 0.008333
 1.4015 0.2202 34.6818 -80.5044 3.7639 -178.6662 10.4034 -0.3116 -1.1746 -0.0284 0.2967 -0.6242 -1.7990 2.2783 -0.9167 0.0629 0.5607 0.0706 5.8180 -1.8538 0.2921 -3.0438 -2.1093 2.2659 -1.0420 -0.3446 1.6057 13.5399 -18.0460 -4.2664 16.3059 38.5329 62.3820 27.0089 0.0000 8.1323 -0.9317 -5.6213 -9.4265 3.1635 -6.7040 25.3350 0.0000 -0.0000 32.6817 -0.0000 -0.0000 17.2715 -2.9189 -7.5195 -0.3859 -0.2203 -4.7503 28.3611 -3.2760 -1.1697 39.2896 -1.1656 -0.1331 13.0268 -3.2136 -4.6167 0.0748 -4.4641 -3.5180 25.6593 -6.3374 -1.6747 29.5788 -5.6771 -1.3250 26.2552 7.1202 -4.2741 1.7969 10.2739 -20.1602 22.8217 3.3404 1.2232 40.2158 1.2510 0.1536 14.0005 13.9648 48.4161 18.7074 0.4407 -4.7205 0.8349 2.6451 -3.8963 6.6709 -10.1351 15.2224 -2.6873 10.4629 -33.1594 -68.6596 -26.3773 -0.0000 23.0397 0.2527 6.2870 -2.3066 0.8089 1.2270 -33.3992 0.0000 -0.0000 -19.4077 -0.0000 -0.0000 -14.4174 2.6407 -13.4003 -1.5905 -1.3152 3.1804 -33.5300 -2.6335 0.7207 -30.6063 -0.7514 0.0549 -8.3555 1.8973 -5.0798 -0.8599 -5.1765 1.8649 -25.2746 -5.6534 1.3133 -26.1373 -4.2256 0.7165 -19.2390 -7.1718 -8.9273 -0.1813 10.5724 15.4129 -27.7823 2.3450 -0.5622 -26.9616 0.5855 -0.0333 -6.5023 -9.8652 42.1952 -13.7252 -4.4293 11.8718 9.1487 1.7372 2.6672 -4.4864 18.2868 0.3788 -1.3555 0.6534 -0.0000 0.0000 -11.2017 -9.3609 -5.3925 6.9277 0.0000 -0.0000 18.2767 1.4387 -0.2125 1.0162 -0.0000 -0.0000 -10.1653 3.7532 -1.2432 12.9722 -0.0000 -0.0000
 1.4045 0.2172 34.6818 -80.4985 3.7657 -178.6663 10.4136 -0.3206 -1.1717 -0.0322 0.3007 -0.6251 -1.7998 2.2708 -0.9177 0.0618 0.5602 0.0679 5.8134 -1.8596 0.3100 -3.0433 -2.0941 2.2368 -1.0434 -0.3442 1.6061 13.5405 -18.0560 -4.2688 16.3419 38.5187 62.3527 26.9714 0.0000 7.9708 -0.9183 -5.5377 -9.4309 3.4077 -7.1770 25.4830 0.0000 -0.0000 33.2015 0.0000 -0.0000 16.9375 -2.9644 -6.6908 -0.5354 -0.2962 -4.6206 28.8256 -3.2347 -1.1363 38.7019 -1.1713 -0.1344 13.0922 -3.2893 -4.6998 0.1058 -4.7448 -3.2843 26.4654 -6.1789 -1.5863 28.7717 -5.7670 -1.3698 26.7018 7.1693 -4.0007 1.9910 10.4630 -21.2968 22.3705 3.3875 1.2636 40.9023 1.2515 0.1537 14.0057 13.5907 48.4965 18.2914 0.3836 -4.7809 0.6916 2.7105 -3.9811 6.8247 -10.1262 15.2388 -2.6877 10.4713 -33.0965 -68.6534 -26.3177 -0.0000 23.1737 0.2751 6.1873 -2.5509 0.7367 1.1167 -33.4156 -0.0000 0.0000 -18.1299 -0.0000 0.0000 -13.9267 2.7346 -13.4653 -1.7322 -1.4905 2.8996 -33.3259 -2.5178 0.6543 -29.1296 -0.7163 0.0499 -7.9628 2.0338 -5.1613 -1.0052 -5.4145 1.0641 -24.7067 -5.4529 1.2171 -25.1475 -4.1218 0.6808 -18.7492 -7.2632 -9.2351 -0.2235 10.6653 16.0138 -27.3472 2.2945 -0.5369 -26.3366 0.5215 -0.0264 -5.7886 -9.3234 42.0731 -13.3370 -4.4775 12.8408 9.2329 1.8831 2.8716 -4.8440 18.2913 0.3663 -1.3509 0.6475 -0.0000 0.0000 -11.1959 -9.3475 -5.3853 6.9178 0.0000 0.0000 18.2981 1.2779 -0.2097 0.9763 0.0000 0.0000 -10.1492 3.9148 -1.2282 12.9744 -0.0000 0.0000
 1.4075 0.2141 34.6819 -80.4929 3.7690 -178.6660 10.4351 -0.3274 -1.1694 -0.0321 0.3015 -0.6261 -1.8161 2.2789 -0.9187 0.0501 0.5630 0.0701 5.8178 -1.8674 0.2914 -3.0450 -2.1012 2.2502 -1.0460 -0.3430 1.5969 13.5396 -18.0866 -4.2755 16.3703 38.5144 62.3293 26.8880 0.0000 7.7938 -0.8707 -5.2669 -9.4004 3.5432 -7.4500 25.5265 -0.0000 -0.0000 33.1970 -0.0000 -0.0000 16.5790 -3.0145 -6.1831 -0.6163 -0.3528 -4.5222 28.9741 -3.1851 -1.0971 38.0023 -1.1633 -0.1325 13.0006 -3.3461 -4.7831 0.1353 -4.8434 -3.2295 26.8023 -6.0180 -1.4995 27.9589 -5.7876 -1.3801 26.8043 7.2229 -3.8377 2.1117 10.5745 -21.9577 22.1297 3.4030 1.2770 41.1296 1.2414 0.1512 13.8903 13.3420 48.6327 18.1014 0.4215 -4.8943 0.7691 2.7546 -4.0381 6.9283 -10.1173 15.2482 -2.6869 10.5360 -33.1102 -68.6155 -26.2647 -0.0000 23.1668 0.2796 6.1785 -2.5965 0.6946 1.0517 -33.4473 0.0000 0.0000 -17.3923 -0.0000 -0.0000 -13.6821 2.8102 -13.4928 -1.8120 -1.5955 2.7306 -33.2175 -2.4462 0.6151 -28.2267 -0.6993 0.0475 -7.7724 2.1619 -5.1995 -1.0848 -5.5715 0.5449 -24.3882 -5.3283 1.1594 -24.5361 -4.0580 0.6593 -18.4490 -7.3454 -9.4202 -0.2629 10.7474 16.4169 -27.1116 2.2768 -0.5282 -26.1185 0.4871 -0.0230 -5.4055 -9.0218 42.1119 -13.1128 -4.3947 13.4413 9.1031 2.0090 3.0457 -5.1503 18.2917 0.3600 -1.3472 0.6460 0.0000 -0.0000 -11.1968 -9.3370 -5.3879 6.9245 0.0000 -0.0000 18.2956 1.2472 -0.2062 0.9822 -0.0000 -0.0000 -10.1460 3.9470 -1.2256 12.9638 0.0000 0.0000
 1.4107 0.2109 34.6821 -80.4861 3.7690 -178.6651 10.4482 -0.3377 -1.1686 -0.0358 0.3015 -0.6275 -1.8174 2.2776 -0.9182 0.0452 0.5631 0.0719 5.8175 -1.8672 0.2859 -3.0461 -2.1001 2.2440 -1.0492 -0.3420 1.5899 13.5360 -18.0978 -4.2769 16.4115 38.5100 62.2988 26.8462 0.0000 7.6527 -0.8525 -5.1433 -9.4247 3.6251 -7.6057 25.5790 -0.0000 0.0000 33.1274 0.0000 0.0000 16.3114 -3.0493 -5.8626 -0.6634 -0.3956 -4.4485 29.0882 -3.1522 -1.0716 37.5419 -1.1565 -0.1310 12.9234 -3.3815 -4.8433 0.1574 -4.9049 -3.2086 27.0422 -5.9155 -1.4457 27.4440 -5.7986 -1.3857 26.8595 7.2610 -3.7344 2.1854 10.6494 -22.3496 22.0095 3.4084 1.2817 41.2084 1.2315 0.1488 13.7776 13.1759 48.7414 17.9927 0.4605 -4.9852 0.8512 2.7785 -4.0687 6.9842 -10.1121 15.2624 -2.6879 10.5566 -33.0633 -68.6074 -26.2077 -0.0000 23.1930 0.2823 6.2035 -2.6109 0.6661 1.0051 -33.5346 0.0000 0.0000 -16.9904 0.0000 -0.0000 -13.5827 2.8655 -13.5197 -1.8565 -1.6579 2.6377 -33.2379 -2.4067 0.5941 -27.7308 -0.6933 0.0467 -7.7060 2.2662 -5.2053 -1.1228 -5.6976 0.2088 -24.2889 -5.2630 1.1299 -24.2171 -4.0211 0.6471 -18.2755 -7.4128 -9.5416 -0.2900 10.8227 16.6838 -27.0058 2.2741 -0.5268 -26.0844 0.4700 -0.0214 -5.2151 -8.8809 42.1893 -12.9578 -4.2969 13.7780 8.9482 2.1001 3.1706 -5.3709 18.2927 0.3490 -1.3426 0.6472 -0.0000 0.0000 -11.1963 -9.3242 -5.3999 6.9188 -0.0000 0.0000 18.2920 1.2472 -0.2011 0.9920 -0.0000 0.0000 -10.1480 3.9466 -1.2240 12.9629 0.0000 -0.0000
 1.4139 0.2073 34.6821 -80.4835 3.7699 -178.6636 10.4530 -0.3454 -1.1674 -0.0387 0.3010 -0.6287 -1.8161 2.2741 -0.9173 0.0482 0.5622 0.0703 5.8124 -1.8644 0.2785 -3.0489 -2.0989 2.2356 -1.0524 -0.3420 1.5882 13.5355 -18.1052 -4.2784 16.4367 38.5030 62.2797 26.8027 0.0000 7.5230 -0.8475 -5.0812 -9.4818 3.6817 -7.7151 25.6090 -0.0000 -0.0000 33.0917 0.0000 0.0000 16.1314 -3.0771 -5.6244 -0.7011 -0.4267 -4.3952 29.1614 -3.1308 -1.0552 37.2432 -1.1527 -0.1301 12.8802 -3.4169 -4.8822 0.1681 -4.9489 -3.1915 27.2069 -5.8490 -1.4114 27.1111 -5.8109 -1.3919 26.9206 7.2922 -3.6511 2.2403 10.6985 -22.6136 21.9283 3.4118 1.2847 41.2587 1.2261 0.1475 13.7167 13.0738 48.8157 17.9263 0.4935 -5.0421 0.9227 2.7990 -4.0951 7.0322 -10.1100 15.2781 -2.6901 10.5632 -32.9976 -68.6049 -26.1509 -0.0000 23.2423 0.2872 6.2495 -2.6369 0.6439 0.9696 -33.5929 -0.0000 -0.0000 -16.7205 -0.0000 -0.0000 -13.5143 2.8967 -13.5509 -1.8849 -1.6950 2.5831 -33.2562 -2.3812 0.5808 -27.4121 -0.6903 0.0463 -7.6722 2.3327 -5.2059 -1.1459 -5.7815 -0.0187 -24.2192 -5.2232 1.1121 -24.0230 -3.9960 0.6388 -18.1574 -7.4550 -9.6252 -0.3037 10.8687 16.8558 -26.9336 2.2711 -0.5254 -26.0480 0.4582 -0.0203 -5.0835 -8.8024 42.2428 -12.8305 -4.2311 13.9705 8.8445 2.1553 3.2456 -5.5040 18.2920 0.3495 -1.3385 0.6424 0.0000 0.0000 -11.1939 -9.3225 -5.4042 6.9276 -0.0000 0.0000 18.2831 1.2459 -0.1959 1.0029 -0.0000 0.0000 -10.1517 3.9460 -1.2291 12.9612 -0.0000 -0.0000
 1.4173 0.2047 34.6823 -80.4718 3.7694 -178.6651 10.4632 -0.3543 -1.1624 -0.0402 0.3006 -0.6297 -1.8121 2.2738 -0.9176 0.0518 0.5616 0.0688 5.8047 -1.8596 0.2717 -3.0532 -2.0968 2.2280 -1.0561 -0.3410 1.5813 13.5321 -18.1159 -4.2797 16.4607 38.4857 62.2647 26.7673 0.0000 7.4742 -0.8500 -5.0754 -9.5204 3.7230 -7.7807 25.6711 -0.0000 -0.0000 33.0603 0.0000 0.0000 16.0032 -3.0958 -5.4622 -0.7258 -0.4514 -4.3541 29.2572 -3.1162 -1.0441 37.0401 -1.1499 -0.1295 12.8486 -3.4393 -4.9079 0.1756 -4.9895 -3.1744 27.3550 -5.8054 -1.3892 26.8936 -5.8189 -1.3960 26.9609 7.3140 -3.5986 2.2758 10.7462 -22.7931 21.9011 3.4132 1.2860 41.2797 1.2221 0.1465 13.6708 13.0027 48.8576 17.8669 0.5064 -5.0815 0.9486 2.8087 -4.1075 7.0549 -10.1057 15.2951 -2.6918 10.5623 -32.9351 -68.6097 -26.0833 -0.0000 23.2956 0.2879 6.2596 -2.6390 0.6241 0.9363 -33.6870 0.0000 0.0000 -16.5697 0.0000 -0.0000 -13.4805 2.9142 -13.5748 -1.9027 -1.7226 2.5481 -33.3268 -2.3670 0.5735 -27.2358 -0.6895 0.0462 -7.6629 2.3745 -5.2056 -1.1604 -5.8555 -0.1746 -24.2335 -5.2016 1.1025 -23.9178 -3.9830 0.6345 -18.0967 -7.4825 -9.6816 -0.3119 10.9189 16.9574 -26.9412 2.2721 -0.5259 -26.0603 0.4503 -0.0196 -4.9958 -8.7454 42.3166 -12.7456 -4.1735 14.0930 8.7529 2.1911 3.2941 -5.5902 18.3017 0.3493 -1.3312 0.6390 0.0000 0.0000 -11.1870 -9.3249 -5.3956 6.9204 0.0000 -0.0000 18.2880 1.2467 -0.1892 1.0086 -0.0000 0.0000 -10.1556 3.9484 -1.2298 12.9684 -0.0000 -0.0000
 1.4207 0.2012 34.6822 -80.4697 3.7688 -178.6682 10.4659 -0.3573 -1.1562 -0.0418 0.3001 -0.6297 -1.8091 2.2719 -0.9169 0.0536 0.5607 0.0670 5.7969 -1.8547 0.2646 -3.0577 -2.0946 2.2198 -1.0599 -0.3403 1.5754 13.5264 -18.1274 -4.2805 16.4703 38.4533 62.2620 26.7225 0.0000 7.4673 -0.8491 -5.0652 -9.5286 3.7497 -7.8222 25.7128 0.0000 -0.0000 33.0111 0.0000 0.0000 15.9027 -3.1072 -5.3566 -0.7407 -0.4690 -4.3249 29.3186 -3.1045 -1.0353 36.8783 -1.1470 -0.1288 12.8160 -3.4516 -4.9277 0.1820 -5.0131 -3.1650 27.4422 -5.7737 -1.3731 26.7352 -5.8213 -1.3972 26.9726 7.3283 -3.5663 2.2973 10.7765 -22.9118 21.8810 3.4119 1.2848 41.2595 1.2185 0.1456 13.6290 12.9538 48.8758 17.8174 0.5098 -5.1083 0.9534 2.8123 -4.1121 7.0633 -10.1058 15.3058 -2.6937 10.5636 -32.8614 -68.6130 -26.0131 -0.0000 23.3542 0.2886 6.2530 -2.6480 0.6170 0.9268 -33.6544 0.0000 -0.0000 -16.4581 -0.0000 -0.0000 -13.4640 2.9322 -13.5731 -1.9085 -1.7287 2.5264 -33.2013 -2.3512 0.5654 -27.0395 -0.6880 0.0460 -7.6464 2.4205 -5.2109 -1.1640 -5.8280 -0.2560 -24.0005 -5.1716 1.0892 -23.7718 -3.9664 0.6291 -18.0187 -7.5096 -9.7084 -0.3242 10.9457 17.0249 -26.9323 2.2754 -0.5275 -26.1008 0.4494 -0.0196 -4.9858 -8.7221 42.3576 -12.6973 -4.1153 14.1719 8.6591 2.2262 3.3415 -5.6745 18.2970 0.3507 -1.3222 0.6402 0.0000 0.0000 -11.1852 -9.3233 -5.3920 6.9262 0.0000 0.0000 18.2813 1.2289 -0.1793 1.0138 -0.0000 0.0000 -10.1561 3.9626 -1.2365 12.9517 -0.0000 -0.0000
